<svg xmlns="http://www.w3.org/2000/svg" version="1.1" xmlns:xlink="http://www.w3.org/1999/xlink" width="140" height="140"><svg xmlns="http://www.w3.org/2000/svg" version="1.1" xmlns:xlink="http://www.w3.org/1999/xlink" width="140" height="140"><svg width="140" height="140" viewBox="0 0 140 140" fill="none" xmlns="http://www.w3.org/2000/svg">
<rect width="140" height="140" rx="32" fill="white"></rect>
<path d="M65.8922 23.5561C66.1187 22.8693 66.1898 22.1164 66.0019 21.4065C65.8146 20.6969 65.3916 20.0934 64.8006 19.7124C64.2096 19.3315 63.4853 19.1954 62.7616 19.3178C62.0375 19.4399 61.3812 19.8156 60.8491 20.3054C60.8491 20.3054 60.8491 20.3054 60.8491 20.3054C59.5671 21.5604 58.435 22.7869 57.3305 24.103C53.1405 29.1052 49.8335 34.7992 47.697 41.0462C46.9722 43.1739 46.3199 45.3428 45.7631 47.5579C42.8325 57.5331 41.5619 68.9488 39.9604 79.0424C38.4015 89.417 37.4829 99.869 37.9704 110.633C38.0637 112.356 38.16 113.94 38.4343 115.99C38.6551 117.422 39.424 118.717 40.5859 119.588C41.7476 120.46 43.2048 120.837 44.6393 120.636C46.0739 120.435 47.3712 119.672 48.2486 118.514C49.1261 117.357 49.5092 115.9 49.3279 114.463C49.3279 114.463 49.3279 114.463 49.3279 114.463C49.2132 113.358 49.1231 111.655 49.0898 110.207C48.8936 100.575 49.9298 90.6636 51.5471 80.8906C53.4122 70.1906 54.3896 60.7674 57.3909 50.4934C57.8636 48.6312 58.4246 46.7688 59.0557 44.9165C60.9138 39.4831 62.765 33.8958 64.5297 28.0802C64.9881 26.5736 65.4734 24.9931 65.8922 23.5561Z" fill="#333333"></path>
<path d="M49.315 28.7423C48.1985 28.9977 47.1795 29.627 46.4913 30.5607C45.803 31.4938 45.5006 32.6449 45.6526 33.7752C45.8045 34.9056 46.4002 35.9359 47.3105 36.6541C48.2209 37.3729 49.3699 37.7107 50.5142 37.6621C50.5142 37.6621 50.5142 37.6621 50.5142 37.6621C52.7496 37.5703 54.9461 37.5163 57.1247 37.5018C65.5245 37.4549 73.7934 37.9271 81.402 39.706C91.5772 41.9615 99.8943 47.7512 98.4695 56.4629C98.2644 58.1292 97.7697 59.6897 96.9916 61.0848C94.7337 65.2358 89.8371 67.9194 84.2077 68.6416C74.6957 69.8801 64.0385 67.0068 54.0439 62.6012C52.0543 61.7236 50.0706 60.7755 48.0705 59.7471C47.4001 59.4011 46.6214 59.2685 45.8722 59.4276C45.1233 59.5863 44.4697 60.0171 44.0478 60.6362C43.6259 61.2553 43.4641 62.0211 43.5903 62.7762C43.7162 63.5317 44.1245 64.2079 44.6917 64.7053C44.6917 64.7053 44.6917 64.7053 44.6917 64.7053C46.5005 66.2721 48.3602 67.7429 50.2969 69.1218C60.0288 75.9833 72.2473 81.1861 85.6796 79.5427C93.4937 78.569 102.184 74.4696 106.601 66.4388C108.076 63.799 109.02 60.8822 109.44 57.9696C110.742 50.7632 107.827 42.1119 102.303 37.1602C96.9035 32.0629 90.4205 29.5433 84.167 28.0289C74.6862 25.8306 65.3176 26.0782 56.2967 27.4233C53.9597 27.78 51.6401 28.2212 49.315 28.7423Z" fill="#333333"></path>
</svg></svg><style>@media (prefers-color-scheme: light) { :root { filter: none; } }
@media (prefers-color-scheme: dark) { :root { filter: none; } }
</style></svg>